<?xml version="1.0" encoding="UTF-8" standalone="no"?>
<!DOCTYPE svg PUBLIC "-//W3C//DTD SVG 1.1//EN" "http://www.w3.org/Graphics/SVG/1.1/DTD/svg11.dtd">
<svg width="100%" height="100%" viewBox="0 0 136 140" version="1.1" xmlns="http://www.w3.org/2000/svg" xmlns:xlink="http://www.w3.org/1999/xlink" xml:space="preserve" xmlns:serif="http://www.serif.com/" style="fill-rule:evenodd;clip-rule:evenodd;stroke-linejoin:round;stroke-miterlimit:2;">
    <g transform="matrix(4.166667,0,0,4.166667,-491.55,-416.283333)">
        <circle cx="134.292" cy="116.708" r="14.621" style="fill:url(#_Linear1);"/>
        <path d="M126.392,124.982L127.611,120.433C126.921,119.188 126.558,117.792 126.558,116.376C126.558,111.745 130.326,107.978 134.956,107.978C139.587,107.978 143.354,111.746 143.354,116.376C143.354,121.007 139.586,124.774 134.956,124.774C133.566,124.774 132.193,124.423 130.964,123.756L126.392,124.982ZM131.191,122.053L131.479,122.225C132.536,122.855 133.738,123.188 134.956,123.188C138.712,123.188 141.767,120.133 141.767,116.377C141.767,112.621 138.712,109.566 134.956,109.566C131.201,109.566 128.145,112.621 128.145,116.377C128.145,117.617 128.489,118.838 129.141,119.908L129.318,120.198L128.638,122.737L131.191,122.053Z" style="fill:white;fill-rule:nonzero;"/>
        <path d="M138.081,117.545C137.735,117.338 137.286,117.107 136.878,117.274C136.566,117.402 136.366,117.891 136.164,118.141C136.06,118.269 135.936,118.289 135.777,118.225C134.604,117.758 133.706,116.975 133.058,115.896C132.948,115.728 132.968,115.596 133.1,115.441C133.296,115.211 133.541,114.949 133.594,114.639C133.647,114.329 133.501,113.966 133.373,113.69C133.209,113.337 133.026,112.834 132.672,112.634C132.347,112.45 131.919,112.553 131.629,112.789C131.129,113.196 130.888,113.834 130.895,114.466C130.897,114.646 130.919,114.825 130.961,114.998C131.062,115.415 131.255,115.804 131.471,116.174C131.634,116.453 131.812,116.724 132.004,116.984C132.631,117.836 133.412,118.577 134.315,119.13C134.766,119.407 135.253,119.649 135.756,119.815C136.321,120.002 136.824,120.196 137.434,120.08C138.073,119.959 138.702,119.564 138.956,118.948C139.031,118.766 139.068,118.563 139.026,118.371C138.941,117.974 138.402,117.737 138.081,117.545Z" style="fill:white;"/>
    </g>
    <defs>
        <linearGradient id="_Linear1" x1="0" y1="0" x2="1" y2="0" gradientUnits="userSpaceOnUse" gradientTransform="matrix(-20.6778,20.6777,-20.6777,-20.6778,144.6309,106.3694)"><stop offset="0" style="stop-color:rgb(96,252,124);stop-opacity:1"/><stop offset="1" style="stop-color:rgb(74,177,97);stop-opacity:1"/></linearGradient>
    </defs>
</svg>
